<svg width="600" height="400" viewBox="0 0 600 400" fill="none" xmlns="http://www.w3.org/2000/svg">
<rect width="600" height="400" fill="#E3E3E3"/>
<rect x="190.5" y="40.5" width="369" height="79" fill="white" stroke="black" stroke-dasharray="12 6"/>
<rect x="190.5" y="160.5" width="369" height="79" fill="white" stroke="black" stroke-dasharray="12 6"/>
<rect x="190.5" y="280.5" width="369" height="79" fill="white" stroke="black" stroke-dasharray="12 6"/>
<rect x="40" y="40" width="140" height="80" fill="black"/>
<path d="M96.8265 85V74.8182H100.724C101.46 74.8182 102.072 74.9342 102.559 75.1662C103.049 75.3949 103.416 75.7081 103.657 76.1058C103.903 76.5036 104.025 76.9543 104.025 77.4581C104.025 77.8724 103.946 78.227 103.787 78.522C103.628 78.8137 103.414 79.0507 103.145 79.233C102.877 79.4152 102.577 79.5462 102.246 79.6257V79.7251C102.607 79.745 102.953 79.8561 103.285 80.0582C103.619 80.2571 103.893 80.5388 104.105 80.9034C104.317 81.268 104.423 81.7088 104.423 82.2259C104.423 82.7528 104.296 83.2268 104.04 83.6477C103.785 84.0653 103.401 84.3951 102.887 84.6371C102.373 84.879 101.727 85 100.948 85H96.8265ZM98.671 83.4588H100.655C101.324 83.4588 101.806 83.3312 102.101 83.076C102.4 82.8175 102.549 82.486 102.549 82.0817C102.549 81.7801 102.474 81.5083 102.325 81.2663C102.176 81.0211 101.964 80.8288 101.689 80.6896C101.414 80.5471 101.086 80.4759 100.704 80.4759H98.671V83.4588ZM98.671 79.1484H100.496C100.814 79.1484 101.1 79.0904 101.356 78.9744C101.611 78.8551 101.811 78.6877 101.957 78.4723C102.106 78.2536 102.181 77.995 102.181 77.6967C102.181 77.3023 102.042 76.9775 101.763 76.7223C101.488 76.4671 101.079 76.3395 100.535 76.3395H98.671V79.1484ZM110.815 81.7884V77.3636H112.615V85H110.87V83.6428H110.79C110.618 84.0703 110.335 84.42 109.94 84.6918C109.549 84.9635 109.067 85.0994 108.494 85.0994C107.993 85.0994 107.551 84.9884 107.166 84.7663C106.785 84.541 106.487 84.2145 106.271 83.7869C106.056 83.3561 105.948 82.8357 105.948 82.2259V77.3636H107.748V81.9474C107.748 82.4313 107.88 82.8158 108.146 83.1009C108.411 83.3859 108.759 83.5284 109.19 83.5284C109.455 83.5284 109.712 83.4638 109.96 83.3345C110.209 83.2053 110.413 83.013 110.572 82.7578C110.734 82.4993 110.815 82.1761 110.815 81.7884ZM118.279 77.3636V78.7557H113.889V77.3636H118.279ZM114.973 75.5341H116.773V82.7031C116.773 82.9451 116.809 83.1307 116.882 83.2599C116.958 83.3859 117.058 83.4721 117.18 83.5185C117.303 83.5649 117.439 83.5881 117.588 83.5881C117.701 83.5881 117.803 83.5798 117.896 83.5632C117.992 83.5466 118.065 83.5317 118.115 83.5185L118.418 84.9254C118.322 84.9586 118.184 84.995 118.006 85.0348C117.83 85.0746 117.614 85.0978 117.359 85.1044C116.908 85.1177 116.502 85.0497 116.141 84.9006C115.78 84.7481 115.493 84.5128 115.281 84.1946C115.072 83.8764 114.97 83.4787 114.973 83.0014V75.5341ZM123.597 77.3636V78.7557H119.207V77.3636H123.597ZM120.291 75.5341H122.091V82.7031C122.091 82.9451 122.127 83.1307 122.2 83.2599C122.277 83.3859 122.376 83.4721 122.499 83.5185C122.621 83.5649 122.757 83.5881 122.906 83.5881C123.019 83.5881 123.122 83.5798 123.214 83.5632C123.311 83.5466 123.384 83.5317 123.433 83.5185L123.737 84.9254C123.64 84.9586 123.503 84.995 123.324 85.0348C123.148 85.0746 122.933 85.0978 122.678 85.1044C122.227 85.1177 121.821 85.0497 121.46 84.9006C121.098 84.7481 120.812 84.5128 120.599 84.1946C120.391 83.8764 120.288 83.4787 120.291 83.0014V75.5341Z" fill="white"/>
<rect x="40" y="160" width="140" height="80" fill="black"/>
<path d="M89.3138 205V194.818H93.132C93.9142 194.818 94.5705 194.954 95.1008 195.226C95.6344 195.498 96.0371 195.879 96.3089 196.369C96.584 196.857 96.7215 197.425 96.7215 198.075C96.7215 198.728 96.5823 199.294 96.3039 199.775C96.0288 200.252 95.6228 200.622 95.0858 200.884C94.5489 201.142 93.8894 201.271 93.1072 201.271H90.3877V199.74H92.8586C93.316 199.74 93.6905 199.677 93.9822 199.551C94.2738 199.422 94.4893 199.235 94.6285 198.989C94.771 198.741 94.8422 198.436 94.8422 198.075C94.8422 197.713 94.771 197.405 94.6285 197.15C94.4859 196.891 94.2689 196.696 93.9772 196.563C93.6855 196.427 93.3093 196.359 92.8486 196.359H91.1583V205H89.3138ZM94.5738 200.386L97.0944 205H95.0361L92.5603 200.386H94.5738ZM101.561 205.149C100.816 205.149 100.169 204.985 99.6224 204.657C99.0756 204.329 98.6513 203.87 98.3497 203.28C98.0514 202.69 97.9023 202 97.9023 201.212C97.9023 200.423 98.0514 199.732 98.3497 199.138C98.6513 198.545 99.0756 198.085 99.6224 197.756C100.169 197.428 100.816 197.264 101.561 197.264C102.307 197.264 102.953 197.428 103.5 197.756C104.047 198.085 104.47 198.545 104.768 199.138C105.07 199.732 105.22 200.423 105.22 201.212C105.22 202 105.07 202.69 104.768 203.28C104.47 203.87 104.047 204.329 103.5 204.657C102.953 204.985 102.307 205.149 101.561 205.149ZM101.571 203.707C101.976 203.707 102.314 203.596 102.585 203.374C102.857 203.149 103.059 202.847 103.192 202.469C103.328 202.092 103.396 201.671 103.396 201.207C103.396 200.739 103.328 200.317 103.192 199.939C103.059 199.558 102.857 199.254 102.585 199.029C102.314 198.804 101.976 198.691 101.571 198.691C101.157 198.691 100.812 198.804 100.537 199.029C100.265 199.254 100.062 199.558 99.9257 199.939C99.7931 200.317 99.7268 200.739 99.7268 201.207C99.7268 201.671 99.7931 202.092 99.9257 202.469C100.062 202.847 100.265 203.149 100.537 203.374C100.812 203.596 101.157 203.707 101.571 203.707ZM111.615 201.788V197.364H113.415V205H111.67V203.643H111.59C111.418 204.07 111.135 204.42 110.74 204.692C110.349 204.964 109.867 205.099 109.293 205.099C108.793 205.099 108.35 204.988 107.966 204.766C107.585 204.541 107.287 204.214 107.071 203.787C106.856 203.356 106.748 202.836 106.748 202.226V197.364H108.548V201.947C108.548 202.431 108.68 202.816 108.945 203.101C109.211 203.386 109.559 203.528 109.989 203.528C110.255 203.528 110.511 203.464 110.76 203.335C111.009 203.205 111.212 203.013 111.372 202.758C111.534 202.499 111.615 202.176 111.615 201.788ZM117.065 200.526V205H115.266V197.364H116.986V198.661H117.075C117.251 198.234 117.531 197.894 117.915 197.642C118.303 197.39 118.782 197.264 119.352 197.264C119.879 197.264 120.338 197.377 120.729 197.602C121.124 197.828 121.429 198.154 121.644 198.582C121.863 199.009 121.971 199.528 121.967 200.138V205H120.168V200.416C120.168 199.906 120.035 199.506 119.77 199.218C119.508 198.93 119.145 198.786 118.681 198.786C118.366 198.786 118.086 198.855 117.841 198.994C117.599 199.13 117.408 199.327 117.269 199.586C117.133 199.844 117.065 200.158 117.065 200.526ZM126.631 205.134C126.031 205.134 125.494 204.98 125.02 204.672C124.546 204.364 124.171 203.916 123.896 203.33C123.621 202.743 123.484 202.03 123.484 201.192C123.484 200.343 123.623 199.627 123.901 199.044C124.183 198.457 124.562 198.015 125.04 197.717C125.517 197.415 126.049 197.264 126.636 197.264C127.083 197.264 127.451 197.34 127.739 197.493C128.028 197.642 128.256 197.823 128.425 198.035C128.594 198.244 128.725 198.441 128.818 198.626H128.893V194.818H130.697V205H128.927V203.797H128.818C128.725 203.982 128.591 204.18 128.415 204.388C128.24 204.594 128.008 204.77 127.719 204.915C127.431 205.061 127.068 205.134 126.631 205.134ZM127.133 203.658C127.514 203.658 127.839 203.555 128.107 203.349C128.376 203.141 128.579 202.851 128.719 202.479C128.858 202.108 128.927 201.676 128.927 201.182C128.927 200.688 128.858 200.259 128.719 199.894C128.583 199.53 128.381 199.246 128.112 199.044C127.847 198.842 127.521 198.741 127.133 198.741C126.732 198.741 126.397 198.845 126.128 199.054C125.86 199.263 125.658 199.551 125.522 199.919C125.386 200.287 125.318 200.708 125.318 201.182C125.318 201.659 125.386 202.085 125.522 202.46C125.661 202.831 125.865 203.124 126.133 203.339C126.405 203.552 126.738 203.658 127.133 203.658Z" fill="white"/>
<rect x="40" y="280" width="140" height="80" fill="black"/>
<path d="M92.5708 317.617C92.5244 317.183 92.3289 316.845 91.9842 316.603C91.6428 316.361 91.1987 316.24 90.6518 316.24C90.2673 316.24 89.9376 316.298 89.6625 316.414C89.3874 316.53 89.1769 316.687 89.0311 316.886C88.8852 317.085 88.8107 317.312 88.8074 317.567C88.8074 317.78 88.8554 317.964 88.9515 318.119C89.051 318.275 89.1852 318.408 89.3542 318.517C89.5233 318.623 89.7105 318.713 89.916 318.786C90.1215 318.858 90.3287 318.92 90.5375 318.969L91.492 319.208C91.8765 319.298 92.246 319.419 92.6007 319.571C92.9586 319.723 93.2785 319.916 93.5602 320.148C93.8452 320.38 94.0706 320.66 94.2363 320.988C94.402 321.316 94.4849 321.701 94.4849 322.141C94.4849 322.738 94.3324 323.263 94.0275 323.717C93.7226 324.168 93.2818 324.521 92.7051 324.776C92.1317 325.028 91.4373 325.154 90.622 325.154C89.8298 325.154 89.1421 325.031 88.5588 324.786C87.9788 324.541 87.5247 324.183 87.1966 323.712C86.8717 323.242 86.6961 322.668 86.6696 321.992H88.4842C88.5107 322.347 88.6201 322.642 88.8123 322.877C89.0046 323.112 89.2548 323.288 89.563 323.404C89.8746 323.52 90.2226 323.578 90.6071 323.578C91.0081 323.578 91.3594 323.518 91.661 323.399C91.966 323.277 92.2046 323.107 92.377 322.892C92.5493 322.673 92.6371 322.418 92.6404 322.126C92.6371 321.861 92.5592 321.643 92.4068 321.47C92.2543 321.295 92.0405 321.149 91.7654 321.033C91.4937 320.913 91.1755 320.807 90.8109 320.714L89.6525 320.416C88.814 320.201 88.1511 319.874 87.6639 319.437C87.18 318.996 86.938 318.411 86.938 317.682C86.938 317.082 87.1004 316.557 87.4252 316.106C87.7534 315.655 88.1992 315.305 88.7626 315.057C89.3261 314.805 89.9641 314.679 90.6767 314.679C91.3992 314.679 92.0323 314.805 92.5758 315.057C93.1227 315.305 93.5519 315.652 93.8635 316.096C94.175 316.537 94.3358 317.044 94.3457 317.617H92.5708ZM101.146 327.864V323.797H101.071C100.978 323.982 100.844 324.18 100.668 324.388C100.493 324.594 100.261 324.77 99.9723 324.915C99.6839 325.061 99.321 325.134 98.8835 325.134C98.2836 325.134 97.7467 324.98 97.2727 324.672C96.7988 324.364 96.4242 323.916 96.1491 323.33C95.8741 322.743 95.7365 322.03 95.7365 321.192C95.7365 320.343 95.8757 319.627 96.1541 319.044C96.4358 318.457 96.8153 318.015 97.2926 317.717C97.7699 317.415 98.3018 317.264 98.8885 317.264C99.3359 317.264 99.7038 317.34 99.9922 317.493C100.281 317.642 100.509 317.823 100.678 318.035C100.847 318.244 100.978 318.441 101.071 318.626H101.18V317.364H102.95V327.864H101.146ZM99.3857 323.658C99.7668 323.658 100.092 323.555 100.36 323.349C100.629 323.141 100.832 322.851 100.972 322.479C101.111 322.108 101.18 321.676 101.18 321.182C101.18 320.688 101.111 320.259 100.972 319.894C100.836 319.53 100.634 319.246 100.365 319.044C100.1 318.842 99.7734 318.741 99.3857 318.741C98.9846 318.741 98.6499 318.845 98.3814 319.054C98.1129 319.263 97.9107 319.551 97.7749 319.919C97.639 320.287 97.571 320.708 97.571 321.182C97.571 321.659 97.639 322.085 97.7749 322.46C97.9141 322.831 98.1179 323.124 98.3864 323.339C98.6581 323.552 98.9912 323.658 99.3857 323.658ZM109.667 321.788V317.364H111.467V325H109.722V323.643H109.642C109.47 324.07 109.186 324.42 108.792 324.692C108.401 324.964 107.919 325.099 107.345 325.099C106.845 325.099 106.402 324.988 106.018 324.766C105.637 324.541 105.338 324.214 105.123 323.787C104.907 323.356 104.8 322.836 104.8 322.226V317.364H106.599V321.947C106.599 322.431 106.732 322.816 106.997 323.101C107.262 323.386 107.61 323.528 108.041 323.528C108.306 323.528 108.563 323.464 108.812 323.335C109.06 323.205 109.264 323.013 109.423 322.758C109.586 322.499 109.667 322.176 109.667 321.788ZM115.515 325.154C115.031 325.154 114.595 325.068 114.207 324.896C113.823 324.72 113.518 324.461 113.292 324.12C113.07 323.779 112.959 323.358 112.959 322.857C112.959 322.426 113.039 322.07 113.198 321.788C113.357 321.507 113.574 321.281 113.849 321.112C114.124 320.943 114.434 320.816 114.779 320.729C115.127 320.64 115.487 320.575 115.858 320.536C116.305 320.489 116.668 320.448 116.947 320.411C117.225 320.371 117.427 320.312 117.553 320.232C117.682 320.149 117.747 320.022 117.747 319.849V319.82C117.747 319.445 117.636 319.155 117.414 318.95C117.192 318.744 116.872 318.641 116.454 318.641C116.014 318.641 115.664 318.737 115.405 318.93C115.15 319.122 114.978 319.349 114.888 319.611L113.208 319.372C113.34 318.908 113.559 318.52 113.864 318.209C114.169 317.894 114.542 317.659 114.983 317.503C115.424 317.344 115.911 317.264 116.444 317.264C116.812 317.264 117.179 317.307 117.543 317.393C117.908 317.48 118.241 317.622 118.542 317.821C118.844 318.017 119.086 318.283 119.268 318.621C119.454 318.96 119.547 319.382 119.547 319.889V325H117.817V323.951H117.757C117.648 324.163 117.493 324.362 117.295 324.548C117.099 324.73 116.852 324.877 116.554 324.99C116.259 325.099 115.912 325.154 115.515 325.154ZM115.982 323.832C116.343 323.832 116.657 323.76 116.922 323.618C117.187 323.472 117.391 323.28 117.533 323.041C117.679 322.803 117.752 322.542 117.752 322.261V321.361C117.696 321.407 117.599 321.45 117.464 321.49C117.331 321.53 117.182 321.565 117.016 321.594C116.85 321.624 116.686 321.651 116.524 321.674C116.362 321.697 116.221 321.717 116.101 321.734C115.833 321.77 115.593 321.83 115.381 321.913C115.168 321.996 115.001 322.112 114.878 322.261C114.756 322.406 114.694 322.595 114.694 322.827C114.694 323.159 114.815 323.409 115.057 323.578C115.299 323.747 115.608 323.832 115.982 323.832ZM121.356 325V317.364H123.101V318.636H123.181C123.32 318.196 123.559 317.856 123.897 317.617C124.238 317.375 124.628 317.254 125.065 317.254C125.165 317.254 125.276 317.259 125.398 317.269C125.524 317.276 125.629 317.287 125.711 317.304V318.96C125.635 318.933 125.514 318.91 125.349 318.89C125.186 318.867 125.029 318.855 124.876 318.855C124.548 318.855 124.253 318.926 123.991 319.069C123.733 319.208 123.529 319.402 123.38 319.651C123.231 319.899 123.156 320.186 123.156 320.511V325H121.356ZM129.973 325.149C129.208 325.149 128.547 324.99 127.99 324.672C127.436 324.35 127.01 323.896 126.712 323.31C126.414 322.72 126.265 322.025 126.265 321.227C126.265 320.441 126.414 319.752 126.712 319.158C127.014 318.562 127.435 318.098 127.975 317.766C128.515 317.432 129.15 317.264 129.879 317.264C130.35 317.264 130.794 317.34 131.211 317.493C131.632 317.642 132.003 317.874 132.325 318.189C132.65 318.504 132.905 318.905 133.091 319.392C133.276 319.876 133.369 320.453 133.369 321.122V321.674H127.11V320.461H131.644C131.641 320.116 131.566 319.81 131.42 319.541C131.274 319.269 131.07 319.056 130.809 318.9C130.55 318.744 130.248 318.666 129.904 318.666C129.536 318.666 129.213 318.756 128.934 318.935C128.656 319.11 128.439 319.342 128.283 319.631C128.131 319.916 128.053 320.229 128.049 320.57V321.629C128.049 322.073 128.131 322.455 128.293 322.773C128.455 323.088 128.682 323.33 128.974 323.499C129.266 323.664 129.607 323.747 129.998 323.747C130.26 323.747 130.497 323.711 130.709 323.638C130.921 323.562 131.105 323.451 131.261 323.305C131.417 323.159 131.534 322.978 131.614 322.763L133.294 322.952C133.188 323.396 132.986 323.784 132.688 324.115C132.393 324.443 132.015 324.698 131.554 324.881C131.094 325.06 130.567 325.149 129.973 325.149Z" fill="white"/>
<rect x="240.5" y="65.5" width="269" height="29" fill="#007BFF" fill-opacity="0.1" stroke="#006DE1" stroke-dasharray="12 6"/>
<rect x="240.5" y="185.5" width="269" height="29" fill="#007BFF" fill-opacity="0.1" stroke="#006DE1" stroke-dasharray="12 6"/>
<rect x="240.5" y="305.5" width="269" height="29" fill="#007BFF" fill-opacity="0.1" stroke="#006DE1" stroke-dasharray="12 6"/>
<rect x="255" y="65" width="240" height="30" fill="#006DE1"/>
<rect x="240" y="185" width="270" height="30" rx="15" fill="#006DE1"/>
<rect x="240" y="305" width="270" height="30" fill="#006DE1"/>
<path d="M255 80H495" stroke="white" stroke-linecap="round" stroke-dasharray="6 6"/>
<path d="M255 200H495" stroke="white" stroke-linecap="round" stroke-dasharray="6 6"/>
<path d="M255 320H495" stroke="white" stroke-linecap="round" stroke-dasharray="6 6"/>
<circle cx="255" cy="80" r="3.5" fill="white" stroke="#006DE1"/>
<circle cx="255" cy="200" r="3.5" fill="white" stroke="#006DE1"/>
<circle cx="255" cy="320" r="3.5" fill="white" stroke="#006DE1"/>
<circle cx="495" cy="80" r="3.5" fill="white" stroke="#006DE1"/>
<circle cx="495" cy="200" r="3.5" fill="white" stroke="#006DE1"/>
<circle cx="495" cy="320" r="3.5" fill="white" stroke="#006DE1"/>
<mask id="path-25-inside-1_162_2" fill="white">
<path d="M255 65H270V95H255V65Z"/>
</mask>
<path d="M270 65H270.5V64.5H270V65ZM270 95V95.5H270.5V95H270ZM255 95.5H260V94.5H255V95.5ZM265 95.5H270V94.5H265V95.5ZM270.5 95V90H269.5V95H270.5ZM270.5 85V75H269.5V85H270.5ZM270.5 70V65H269.5V70H270.5ZM270 64.5H265V65.5H270V64.5ZM260 64.5H255V65.5H260V64.5ZM270 65H271V64H270V65ZM270 95V96H271V95H270ZM255 96H260V94H255V96ZM265 96H270V94H265V96ZM271 95V90H269V95H271ZM271 85V75H269V85H271ZM271 70V65H269V70H271ZM270 64H265V66H270V64ZM260 64H255V66H260V64Z" fill="white" fill-opacity="0.3" mask="url(#path-25-inside-1_162_2)"/>
<mask id="path-27-inside-2_162_2" fill="white">
<path d="M255 185H270V215H255V185Z"/>
</mask>
<path d="M270 185H270.5V184.5H270V185ZM270 215V215.5H270.5V215H270ZM255 215.5H260V214.5H255V215.5ZM265 215.5H270V214.5H265V215.5ZM270.5 215V210H269.5V215H270.5ZM270.5 205V195H269.5V205H270.5ZM270.5 190V185H269.5V190H270.5ZM270 184.5H265V185.5H270V184.5ZM260 184.5H255V185.5H260V184.5ZM270 185H271V184H270V185ZM270 215V216H271V215H270ZM255 216H260V214H255V216ZM265 216H270V214H265V216ZM271 215V210H269V215H271ZM271 205V195H269V205H271ZM271 190V185H269V190H271ZM270 184H265V186H270V184ZM260 184H255V186H260V184Z" fill="white" fill-opacity="0.3" mask="url(#path-27-inside-2_162_2)"/>
<mask id="path-29-inside-3_162_2" fill="white">
<path d="M495 95L480 95L480 65L495 65L495 95Z"/>
</mask>
<path d="M480 95L479.5 95L479.5 95.5L480 95.5L480 95ZM480 65L480 64.5L479.5 64.5L479.5 65L480 65ZM495 64.5L490 64.5L490 65.5L495 65.5L495 64.5ZM485 64.5L480 64.5L480 65.5L485 65.5L485 64.5ZM479.5 65L479.5 70L480.5 70L480.5 65L479.5 65ZM479.5 75L479.5 85L480.5 85L480.5 75L479.5 75ZM479.5 90L479.5 95L480.5 95L480.5 90L479.5 90ZM480 95.5L485 95.5L485 94.5L480 94.5L480 95.5ZM490 95.5L495 95.5L495 94.5L490 94.5L490 95.5ZM480 95L479 95L479 96L480 96L480 95ZM480 65L480 64L479 64L479 65L480 65ZM495 64L490 64L490 66L495 66L495 64ZM485 64L480 64L480 66L485 66L485 64ZM479 65L479 70L481 70L481 65L479 65ZM479 75L479 85L481 85L481 75L479 75ZM479 90L479 95L481 95L481 90L479 90ZM480 96L485 96L485 94L480 94L480 96ZM490 96L495 96L495 94L490 94L490 96Z" fill="white" fill-opacity="0.3" mask="url(#path-29-inside-3_162_2)"/>
<mask id="path-31-inside-4_162_2" fill="white">
<path d="M495 215L480 215L480 185L495 185L495 215Z"/>
</mask>
<path d="M480 215L479.5 215L479.5 215.5L480 215.5L480 215ZM480 185L480 184.5L479.5 184.5L479.5 185L480 185ZM495 184.5L490 184.5L490 185.5L495 185.5L495 184.5ZM485 184.5L480 184.5L480 185.5L485 185.5L485 184.5ZM479.5 185L479.5 190L480.5 190L480.5 185L479.5 185ZM479.5 195L479.5 205L480.5 205L480.5 195L479.5 195ZM479.5 210L479.5 215L480.5 215L480.5 210L479.5 210ZM480 215.5L485 215.5L485 214.5L480 214.5L480 215.5ZM490 215.5L495 215.5L495 214.5L490 214.5L490 215.5ZM480 215L479 215L479 216L480 216L480 215ZM480 185L480 184L479 184L479 185L480 185ZM495 184L490 184L490 186L495 186L495 184ZM485 184L480 184L480 186L485 186L485 184ZM479 185L479 190L481 190L481 185L479 185ZM479 195L479 205L481 205L481 195L479 195ZM479 210L479 215L481 215L481 210L479 210ZM480 216L485 216L485 214L480 214L480 216ZM490 216L495 216L495 214L490 214L490 216Z" fill="white" fill-opacity="0.3" mask="url(#path-31-inside-4_162_2)"/>
<mask id="path-33-inside-5_162_2" fill="white">
<path d="M510 335L480 335L480 305L510 305L510 335Z"/>
</mask>
<path d="M510 335L510 335.5L510.5 335.5L510.5 335L510 335ZM480 335L479.5 335L479.5 335.5L480 335.5L480 335ZM480 305L480 304.5L479.5 304.5L479.5 305L480 305ZM510 305L510.5 305L510.5 304.5L510 304.5L510 305ZM510.5 335L510.5 330L509.5 330L509.5 335L510.5 335ZM510.5 325L510.5 315L509.5 315L509.5 325L510.5 325ZM510.5 310L510.5 305L509.5 305L509.5 310L510.5 310ZM510 304.5L505 304.5L505 305.5L510 305.5L510 304.5ZM500 304.5L490 304.5L490 305.5L500 305.5L500 304.5ZM485 304.5L480 304.5L480 305.5L485 305.5L485 304.5ZM479.5 305L479.5 310L480.5 310L480.5 305L479.5 305ZM479.5 315L479.5 325L480.5 325L480.5 315L479.5 315ZM479.5 330L479.5 335L480.5 335L480.5 330L479.5 330ZM480 335.5L485 335.5L485 334.5L480 334.5L480 335.5ZM490 335.5L500 335.5L500 334.5L490 334.5L490 335.5ZM505 335.5L510 335.5L510 334.5L505 334.5L505 335.5ZM510 335L510 336L511 336L511 335L510 335ZM480 335L479 335L479 336L480 336L480 335ZM480 305L480 304L479 304L479 305L480 305ZM510 305L511 305L511 304L510 304L510 305ZM511 335L511 330L509 330L509 335L511 335ZM511 325L511 315L509 315L509 325L511 325ZM511 310L511 305L509 305L509 310L511 310ZM510 304L505 304L505 306L510 306L510 304ZM500 304L490 304L490 306L500 306L500 304ZM485 304L480 304L480 306L485 306L485 304ZM479 305L479 310L481 310L481 305L479 305ZM479 315L479 325L481 325L481 315L479 315ZM479 330L479 335L481 335L481 330L479 330ZM480 336L485 336L485 334L480 334L480 336ZM490 336L500 336L500 334L490 334L490 336ZM505 336L510 336L510 334L505 334L505 336Z" fill="white" fill-opacity="0.3" mask="url(#path-33-inside-5_162_2)"/>
<mask id="path-35-inside-6_162_2" fill="white">
<path d="M270 335L240 335L240 305L270 305L270 335Z"/>
</mask>
<path d="M270 335L270 335.5L270.5 335.5L270.5 335L270 335ZM240 335L239.5 335L239.5 335.5L240 335.5L240 335ZM240 305L240 304.5L239.5 304.5L239.5 305L240 305ZM270 305L270.5 305L270.5 304.5L270 304.5L270 305ZM270.5 335L270.5 330L269.5 330L269.5 335L270.5 335ZM270.5 325L270.5 315L269.5 315L269.5 325L270.5 325ZM270.5 310L270.5 305L269.5 305L269.5 310L270.5 310ZM270 304.5L265 304.5L265 305.5L270 305.5L270 304.5ZM260 304.5L250 304.5L250 305.5L260 305.5L260 304.5ZM245 304.5L240 304.5L240 305.5L245 305.5L245 304.5ZM239.5 305L239.5 310L240.5 310L240.5 305L239.5 305ZM239.5 315L239.5 325L240.5 325L240.5 315L239.5 315ZM239.5 330L239.5 335L240.5 335L240.5 330L239.5 330ZM240 335.5L245 335.5L245 334.5L240 334.5L240 335.5ZM250 335.5L260 335.5L260 334.5L250 334.5L250 335.5ZM265 335.5L270 335.5L270 334.5L265 334.5L265 335.5ZM270 335L270 336L271 336L271 335L270 335ZM240 335L239 335L239 336L240 336L240 335ZM240 305L240 304L239 304L239 305L240 305ZM270 305L271 305L271 304L270 304L270 305ZM271 335L271 330L269 330L269 335L271 335ZM271 325L271 315L269 315L269 325L271 325ZM271 310L271 305L269 305L269 310L271 310ZM270 304L265 304L265 306L270 306L270 304ZM260 304L250 304L250 306L260 306L260 304ZM245 304L240 304L240 306L245 306L245 304ZM239 305L239 310L241 310L241 305L239 305ZM239 315L239 325L241 325L241 315L239 315ZM239 330L239 335L241 335L241 330L239 330ZM240 336L245 336L245 334L240 334L240 336ZM250 336L260 336L260 334L250 334L250 336ZM265 336L270 336L270 334L265 334L265 336Z" fill="white" fill-opacity="0.3" mask="url(#path-35-inside-6_162_2)"/>
</svg>
